<svg width="20" height="19" viewBox="0 0 20 19" fill="none" xmlns="http://www.w3.org/2000/svg">
<path d="M9.5 5.5L7.5 3.5L5 3H2.5L1 3.5V17L3 16.5H4.5H5.5L8 18H10L10.0714 8L9.5 5.5Z" fill="white"/>
<path d="M11 5L10.0714 8L10 18L13.5 15.5C13.8333 15.3333 16.5 15.5 17 15.5L18.5 16.5L19.5 17V3L17 2.5L15 3L13 3.5L11 5Z" fill="white"/>
<path d="M10 18H8L5.5 16.5H4.5H3L1 17V3.5L2.5 3H5L7.5 3.5L9.5 5.5L10.0714 8M10 18L13.5 15.5C13.8333 15.3333 16.5 15.5 17 15.5L18.5 16.5L19.5 17V3L17 2.5L15 3L13 3.5L11 5L10.0714 8M10 18L10.0714 8" stroke="black"/>
<path d="M6 5.11379C6 4.46319 7.35098 2.22222 8 2.22222C8.64902 2.22222 10 1.72222 11 2.22222C12 2.72222 13 5.72222 13 5.72222C13 5.72222 13 8.22222 11 8.72222C9 9.22222 9.47414 13.5716 9.47414 14.2222" stroke="#AE0000" stroke-width="3"/>
<path d="M9.23408 16C9.25046 16.1003 9.27238 16.1777 9.19389 16.2562C9.14458 16.3055 9.08077 16.2428 9.05322 16.2035C8.90925 15.9978 9.08984 16.0546 9.21147 16.1356" stroke="#AE0000" stroke-width="3" stroke-linecap="round" stroke-linejoin="round"/>
</svg>
