<svg width="300" height="300" viewBox="0 0 300 300" fill="none" xmlns="http://www.w3.org/2000/svg">
<rect width="300" height="300" fill="white"/>
<g filter="url(#filter0_dd)">
<path d="M36 133.88C39.5603 133.232 44.0676 132.106 47.3177 134.225C52.414 137.549 56.1714 142.209 60.8459 145.902C64.2673 148.605 66.0472 153.878 68.8036 157.232C72.2948 161.48 73.1222 166.199 74.6393 171.287C80.1583 189.796 80.5634 207.672 80.5634 226.77C80.5634 228.758 81.3851 222.821 82.3318 221.062C83.7431 218.439 85.9086 215.646 86.1338 212.672C86.3204 210.209 87.2197 206.906 87.9022 204.369C89.3846 198.859 90.477 193.616 91.66 188.022C95.068 171.91 94.9218 153.814 93.4726 137.512C92.8536 130.548 92.1185 124.464 90.1127 117.706C89.3185 115.03 88.1159 112.884 86.9296 110.397C85.2855 106.951 83.0341 105.157 81.0939 102.051C78.1501 97.339 74.0813 93.4901 70.3509 89.2938C68.8353 87.5888 67.4216 86.7236 66.991 84.4071C66.1001 79.6142 65.2442 75.7282 65.4437 70.6551C65.6929 64.3172 72.8788 61.5265 77.734 59.1519C91.3431 52.4958 105.683 49.0782 120.75 47.0865C130.958 45.7372 141.927 44.362 152.227 44.362C158.862 44.362 166.41 43.3091 172.917 44.7945C180.124 46.4394 187.317 46.5784 194.403 48.6001C200.198 50.2534 206.491 51.6756 212.397 52.9246C222.326 55.0246 232.037 59.9045 241.664 63.4764C245.503 64.9011 249.439 67.2768 253.291 68.9253C256.27 70.2001 259.309 71.4087 262 73.1633" stroke="#0D00A0" stroke-width="15" stroke-linecap="round" stroke-linejoin="round"/>
<path d="M123.01 104.93C127.946 108.045 132.747 109.856 137.458 113.493C143.066 117.822 148.889 122.272 153.985 127.092C165.303 137.799 175.464 149.91 184.03 162.452C192.83 175.338 199.751 190.027 206.796 203.806C209.634 209.356 211.74 215.257 214.184 220.982C216.196 225.697 217.156 231.087 219.547 235.488" stroke="#0D00A0" stroke-width="15" stroke-linecap="round" stroke-linejoin="round"/>
<path d="M141.385 236C141.385 217.384 144.45 199.956 150.305 182.104C156.221 164.067 168.11 148.503 177.613 132.138C180.768 126.705 185.405 122.49 189.434 117.631C193.62 112.583 198.605 109.794 203.334 105.442C204.954 103.951 206.487 102.178 207.877 100.505C209.192 98.9224 211.286 98.7998 212.747 97.3322C214.697 95.3741 218.271 95.4212 220.19 93.6552" stroke="#0D00A0" stroke-width="15" stroke-linecap="round" stroke-linejoin="round"/>
</g>
<defs>
<filter id="filter0_dd" x="8.49878" y="20.4997" width="281.002" height="247" filterUnits="userSpaceOnUse" color-interpolation-filters="sRGB">
<feFlood flood-opacity="0" result="BackgroundImageFix"/>
<feColorMatrix in="SourceAlpha" type="matrix" values="0 0 0 0 0 0 0 0 0 0 0 0 0 0 0 0 0 0 127 0"/>
<feOffset dy="4"/>
<feGaussianBlur stdDeviation="10"/>
<feColorMatrix type="matrix" values="0 0 0 0 0.2 0 0 0 0 0 0 0 0 0 1 0 0 0 1 0"/>
<feBlend mode="normal" in2="BackgroundImageFix" result="effect1_dropShadow"/>
<feColorMatrix in="SourceAlpha" type="matrix" values="0 0 0 0 0 0 0 0 0 0 0 0 0 0 0 0 0 0 127 0"/>
<feOffset dy="4"/>
<feGaussianBlur stdDeviation="5"/>
<feColorMatrix type="matrix" values="0 0 0 0 0 0 0 0 0 0 0 0 0 0 0 0 0 0 0.73 0"/>
<feBlend mode="normal" in2="effect1_dropShadow" result="effect2_dropShadow"/>
<feBlend mode="normal" in="SourceGraphic" in2="effect2_dropShadow" result="shape"/>
</filter>
</defs>
</svg>
